<mxfile host="Electron" agent="Mozilla/5.0 (X11; Linux x86_64) AppleWebKit/537.36 (KHTML, like Gecko) draw.io/24.7.17 Chrome/128.0.6613.186 Electron/32.2.5 Safari/537.36" version="24.7.17">
  <diagram name="Page-1" id="luqJSl5QCmiNk-XN5sB1">
    <mxGraphModel dx="754" dy="811" grid="1" gridSize="10" guides="1" tooltips="1" connect="1" arrows="1" fold="1" page="1" pageScale="1" pageWidth="850" pageHeight="1100" math="0" shadow="0">
      <root>
        <mxCell id="0" />
        <mxCell id="1" parent="0" />
        <mxCell id="uy-rMBJJCANILrwvUi5R-3" value="" style="edgeStyle=orthogonalEdgeStyle;rounded=0;orthogonalLoop=1;jettySize=auto;html=1;" edge="1" parent="1" source="uy-rMBJJCANILrwvUi5R-1" target="uy-rMBJJCANILrwvUi5R-2">
          <mxGeometry relative="1" as="geometry" />
        </mxCell>
        <mxCell id="uy-rMBJJCANILrwvUi5R-1" value="start" style="ellipse;whiteSpace=wrap;html=1;" vertex="1" parent="1">
          <mxGeometry x="360" y="40" width="120" height="80" as="geometry" />
        </mxCell>
        <mxCell id="uy-rMBJJCANILrwvUi5R-7" value="" style="edgeStyle=orthogonalEdgeStyle;rounded=0;orthogonalLoop=1;jettySize=auto;html=1;" edge="1" parent="1" source="uy-rMBJJCANILrwvUi5R-2" target="uy-rMBJJCANILrwvUi5R-6">
          <mxGeometry relative="1" as="geometry" />
        </mxCell>
        <mxCell id="uy-rMBJJCANILrwvUi5R-2" value="int n, t" style="rounded=1;whiteSpace=wrap;html=1;" vertex="1" parent="1">
          <mxGeometry x="360" y="160" width="120" height="60" as="geometry" />
        </mxCell>
        <mxCell id="uy-rMBJJCANILrwvUi5R-9" value="" style="edgeStyle=orthogonalEdgeStyle;rounded=0;orthogonalLoop=1;jettySize=auto;html=1;" edge="1" parent="1" source="uy-rMBJJCANILrwvUi5R-6" target="uy-rMBJJCANILrwvUi5R-8">
          <mxGeometry relative="1" as="geometry" />
        </mxCell>
        <mxCell id="uy-rMBJJCANILrwvUi5R-6" value="enter n and t" style="shape=parallelogram;perimeter=parallelogramPerimeter;whiteSpace=wrap;html=1;fixedSize=1;" vertex="1" parent="1">
          <mxGeometry x="360" y="260" width="120" height="60" as="geometry" />
        </mxCell>
        <mxCell id="uy-rMBJJCANILrwvUi5R-11" value="" style="edgeStyle=orthogonalEdgeStyle;rounded=0;orthogonalLoop=1;jettySize=auto;html=1;" edge="1" parent="1" source="uy-rMBJJCANILrwvUi5R-8" target="uy-rMBJJCANILrwvUi5R-10">
          <mxGeometry relative="1" as="geometry" />
        </mxCell>
        <mxCell id="uy-rMBJJCANILrwvUi5R-8" value="int c[n]" style="rounded=1;whiteSpace=wrap;html=1;" vertex="1" parent="1">
          <mxGeometry x="360" y="360" width="120" height="60" as="geometry" />
        </mxCell>
        <mxCell id="uy-rMBJJCANILrwvUi5R-13" value="" style="edgeStyle=orthogonalEdgeStyle;rounded=0;orthogonalLoop=1;jettySize=auto;html=1;" edge="1" parent="1" source="uy-rMBJJCANILrwvUi5R-10" target="uy-rMBJJCANILrwvUi5R-12">
          <mxGeometry relative="1" as="geometry" />
        </mxCell>
        <mxCell id="uy-rMBJJCANILrwvUi5R-16" style="edgeStyle=orthogonalEdgeStyle;rounded=0;orthogonalLoop=1;jettySize=auto;html=1;entryX=0;entryY=0.5;entryDx=0;entryDy=0;" edge="1" parent="1" source="uy-rMBJJCANILrwvUi5R-10" target="uy-rMBJJCANILrwvUi5R-15">
          <mxGeometry relative="1" as="geometry">
            <Array as="points">
              <mxPoint x="320" y="500" />
              <mxPoint x="320" y="710" />
            </Array>
          </mxGeometry>
        </mxCell>
        <mxCell id="uy-rMBJJCANILrwvUi5R-10" value="i = 0; i &amp;lt; n; i++" style="shape=hexagon;perimeter=hexagonPerimeter2;whiteSpace=wrap;html=1;fixedSize=1;" vertex="1" parent="1">
          <mxGeometry x="360" y="460" width="120" height="80" as="geometry" />
        </mxCell>
        <mxCell id="uy-rMBJJCANILrwvUi5R-14" value="" style="edgeStyle=orthogonalEdgeStyle;rounded=0;orthogonalLoop=1;jettySize=auto;html=1;entryX=1;entryY=0.5;entryDx=0;entryDy=0;" edge="1" parent="1" source="uy-rMBJJCANILrwvUi5R-12" target="uy-rMBJJCANILrwvUi5R-10">
          <mxGeometry relative="1" as="geometry">
            <Array as="points">
              <mxPoint x="520" y="610" />
              <mxPoint x="520" y="500" />
            </Array>
          </mxGeometry>
        </mxCell>
        <mxCell id="uy-rMBJJCANILrwvUi5R-12" value="enter c[i]" style="shape=parallelogram;perimeter=parallelogramPerimeter;whiteSpace=wrap;html=1;fixedSize=1;" vertex="1" parent="1">
          <mxGeometry x="360" y="580" width="120" height="60" as="geometry" />
        </mxCell>
        <mxCell id="uy-rMBJJCANILrwvUi5R-18" value="" style="edgeStyle=orthogonalEdgeStyle;rounded=0;orthogonalLoop=1;jettySize=auto;html=1;" edge="1" parent="1" source="uy-rMBJJCANILrwvUi5R-15" target="uy-rMBJJCANILrwvUi5R-17">
          <mxGeometry relative="1" as="geometry" />
        </mxCell>
        <mxCell id="uy-rMBJJCANILrwvUi5R-15" value="time = 0" style="rounded=1;whiteSpace=wrap;html=1;" vertex="1" parent="1">
          <mxGeometry x="360" y="680" width="120" height="60" as="geometry" />
        </mxCell>
        <mxCell id="uy-rMBJJCANILrwvUi5R-22" value="" style="edgeStyle=orthogonalEdgeStyle;rounded=0;orthogonalLoop=1;jettySize=auto;html=1;" edge="1" parent="1" source="uy-rMBJJCANILrwvUi5R-17" target="uy-rMBJJCANILrwvUi5R-20">
          <mxGeometry relative="1" as="geometry" />
        </mxCell>
        <mxCell id="uy-rMBJJCANILrwvUi5R-28" value="" style="edgeStyle=orthogonalEdgeStyle;rounded=0;orthogonalLoop=1;jettySize=auto;html=1;" edge="1" parent="1" source="uy-rMBJJCANILrwvUi5R-17" target="uy-rMBJJCANILrwvUi5R-25">
          <mxGeometry relative="1" as="geometry" />
        </mxCell>
        <mxCell id="uy-rMBJJCANILrwvUi5R-17" value="i = 0; i &amp;lt; n - 1; i++&amp;nbsp;" style="shape=hexagon;perimeter=hexagonPerimeter2;whiteSpace=wrap;html=1;fixedSize=1;" vertex="1" parent="1">
          <mxGeometry x="360" y="780" width="120" height="80" as="geometry" />
        </mxCell>
        <mxCell id="uy-rMBJJCANILrwvUi5R-27" style="edgeStyle=orthogonalEdgeStyle;rounded=0;orthogonalLoop=1;jettySize=auto;html=1;entryX=1;entryY=0.5;entryDx=0;entryDy=0;" edge="1" parent="1" source="uy-rMBJJCANILrwvUi5R-20" target="uy-rMBJJCANILrwvUi5R-17">
          <mxGeometry relative="1" as="geometry">
            <Array as="points">
              <mxPoint x="540" y="930" />
              <mxPoint x="540" y="820" />
            </Array>
          </mxGeometry>
        </mxCell>
        <mxCell id="uy-rMBJJCANILrwvUi5R-20" value="time += |c[i] - c[i+1]| * t" style="rounded=0;whiteSpace=wrap;html=1;" vertex="1" parent="1">
          <mxGeometry x="340" y="900" width="160" height="60" as="geometry" />
        </mxCell>
        <mxCell id="uy-rMBJJCANILrwvUi5R-25" value="end" style="ellipse;whiteSpace=wrap;html=1;" vertex="1" parent="1">
          <mxGeometry x="200" y="780" width="120" height="80" as="geometry" />
        </mxCell>
      </root>
    </mxGraphModel>
  </diagram>
</mxfile>
